<svg width="34" height="34" viewBox="0 0 34 34" fill="none" xmlns="http://www.w3.org/2000/svg">
<path d="M22.6274 22.6569C19.509 25.7752 14.432 25.7752 11.3137 22.6569C8.19531 19.5385 8.19531 14.4615 11.3137 11.3431C14.432 8.22481 19.509 8.22481 22.6274 11.3431C25.7457 14.4615 25.7457 19.5385 22.6274 22.6569ZM9.89944 9.92893C8.97085 10.8575 8.23426 11.9599 7.73171 13.1732C7.22916 14.3864 6.9705 15.6868 6.9705 17C6.9705 19.6522 8.02407 22.1957 9.89944 24.0711C11.7748 25.9464 14.3183 27 16.9705 27C18.2837 27 19.5841 26.7413 20.7973 26.2388C22.0106 25.7362 23.113 24.9997 24.0416 24.0711C25.9169 22.1957 26.9705 19.6522 26.9705 17C26.9705 14.3478 25.9169 11.8043 24.0416 9.92893C23.113 9.00035 22.0106 8.26375 20.7973 7.7612C19.5841 7.25866 18.2837 7 16.9705 7C15.6573 7 14.3569 7.25866 13.1437 7.7612C11.9304 8.26375 10.828 9.00035 9.89944 9.92893ZM14.1421 12.7574L12.7279 14.1716L15.5563 17L12.7279 19.8284L14.1421 21.2426L16.9705 18.4142L19.7989 21.2426L21.2131 19.8284L18.3847 17L21.2131 14.1716L19.7989 12.7574L16.9705 15.5858L14.1421 12.7574Z" fill="white"/>
</svg>
