<svg width="30" height="30" viewBox="0 0 30 30" fill="none" xmlns="http://www.w3.org/2000/svg">
<rect x="0.5" y="0.5" width="29" height="29" rx="4.5" fill="#F1F5F9"/>
<rect x="0.5" y="0.5" width="29" height="29" rx="4.5" stroke="#F1F5F9"/>
<path d="M22 6H8C6.89 6 6 6.89 6 8V12H8V8H22V22H8V18H6V22C6 22.5304 6.21071 23.0391 6.58579 23.4142C6.96086 23.7893 7.46957 24 8 24H22C22.5304 24 23.0391 23.7893 23.4142 23.4142C23.7893 23.0391 24 22.5304 24 22V8C24 6.89 23.1 6 22 6ZM13.08 18.58L14.5 20L19.5 15L14.5 10L13.08 11.41L15.67 14H6V16H15.67L13.08 18.58Z" fill="#005475"/>
</svg>
